<svg width="37" height="37" viewBox="0 0 37 37" fill="none" xmlns="http://www.w3.org/2000/svg">
<path d="M7.82576 10.2604L4.12157 6.57364L6.57364 4.12157L10.2604 7.82576L7.82576 10.2604ZM19.9992 0V5.21718H16.5211V0H19.9992ZM32.3987 6.57364L28.6945 10.2604L26.2598 7.82576L29.9466 4.12157L32.3987 6.57364ZM5.21718 16.5211V19.9992H0V16.5211H5.21718ZM31.3031 16.5211H36.5202V19.9992H31.3031V16.5211ZM7.82576 33.0421H28.6945C29.6169 33.0421 30.5016 33.4086 31.1539 34.0608C31.8061 34.7131 32.1726 35.5978 32.1726 36.5202H4.34765C4.34765 35.5978 4.71409 34.7131 5.36636 34.0608C6.01864 33.4086 6.90331 33.0421 7.82576 33.0421ZM18.2601 6.95623C21.0275 6.95623 23.6815 8.05556 25.6383 10.0124C27.5951 11.9692 28.6945 14.6232 28.6945 17.3906V31.3031H7.82576V17.3906C7.82576 14.6232 8.92509 11.9692 10.8819 10.0124C12.8387 8.05556 15.4928 6.95623 18.2601 6.95623ZM18.2601 10.4344C16.4152 10.4344 14.6459 11.1672 13.3413 12.4718C12.0368 13.7763 11.3039 15.5457 11.3039 17.3906V27.8249H25.2163V17.3906C25.2163 15.5457 24.4835 13.7763 23.1789 12.4718C21.8744 11.1672 20.105 10.4344 18.2601 10.4344Z" fill="#FF4B61"/>
</svg>
