<svg width="18" height="20" viewBox="0 0 18 20" fill="none" xmlns="http://www.w3.org/2000/svg">
<path d="M7.30063 1.97761C7.57303 1.30664 8.23126 0.833496 9 0.833496C9.76874 0.833496 10.427 1.30664 10.6994 1.97761C13.4185 2.72249 15.4167 5.21131 15.4167 8.16683V12.4726L17.096 14.9917C17.2836 15.273 17.3011 15.6346 17.1415 15.9327C16.982 16.2308 16.6714 16.4168 16.3333 16.4168H12.1758C11.9534 17.9716 10.6163 19.1668 9 19.1668C7.3837 19.1668 6.04656 17.9716 5.82416 16.4168H1.66667C1.32861 16.4168 1.01798 16.2308 0.858466 15.9327C0.698949 15.6346 0.716432 15.273 0.903955 14.9917L2.58333 12.4726V8.16683C2.58333 5.21131 4.58151 2.72249 7.30063 1.97761ZM7.70324 16.4168C7.892 16.9509 8.40132 17.3335 9 17.3335C9.59869 17.3335 10.108 16.9509 10.2968 16.4168H7.70324ZM9 3.5835C6.4687 3.5835 4.41667 5.63552 4.41667 8.16683V12.7502C4.41667 12.9311 4.3631 13.1081 4.26271 13.2586L3.37948 14.5835H14.6205L13.7373 13.2586C13.6369 13.1081 13.5833 12.9311 13.5833 12.7502V8.16683C13.5833 5.63552 11.5313 3.5835 9 3.5835Z" fill="#7B61FF"/>
</svg>
