<svg width="38" height="13" viewBox="0 0 38 13" fill="none" xmlns="http://www.w3.org/2000/svg">
<path d="M7.35 10.278H12.278V11.79H0.602V10.278H5.502V8.36H1.946V3.992H9.142V2.606H1.932V1.136H10.962V5.434H3.78V6.876H11.256V8.36H7.35V10.278ZM21.8669 3.026V2.97H14.6849V1.5H23.7149V3.026C23.7149 4.832 23.7149 6.596 23.2389 9.242L21.4049 9.074C21.8669 6.61 21.8669 4.776 21.8669 3.026ZM13.4809 10.012H25.1429V11.524H13.4809V10.012ZM37.0698 0.323999V9.578H35.2078V0.323999H37.0698ZM28.3478 4.412C28.3478 5.448 29.1038 6.078 30.0558 6.078C31.0218 6.078 31.7498 5.448 31.7498 4.412C31.7498 3.348 31.0218 2.732 30.0558 2.732C29.1038 2.732 28.3478 3.348 28.3478 4.412ZM33.5558 4.412C33.5558 6.288 32.0298 7.674 30.0558 7.674C28.0818 7.674 26.5418 6.288 26.5418 4.412C26.5418 2.508 28.0818 1.136 30.0558 1.136C32.0298 1.136 33.5558 2.508 33.5558 4.412ZM30.3358 11.51H37.3918V12.98H28.4878V8.668H30.3358V11.51Z" fill="#0D0E43"/>
</svg>
