<svg width="125" height="100" viewBox="0 0 125 100" fill="none" xmlns="http://www.w3.org/2000/svg">
<path d="M112.5 50V18.75H125V56.25H112.5M112.5 81.25H125V68.75H112.5M50 56.25C66.6875 56.25 100 64.625 100 81.25V100H0V81.25C0 64.625 33.3125 56.25 50 56.25ZM50 0C56.6304 0 62.9893 2.63392 67.6777 7.32233C72.3661 12.0107 75 18.3696 75 25C75 31.6304 72.3661 37.9893 67.6777 42.6777C62.9893 47.3661 56.6304 50 50 50C43.3696 50 37.0107 47.3661 32.3223 42.6777C27.6339 37.9893 25 31.6304 25 25C25 18.3696 27.6339 12.0107 32.3223 7.32233C37.0107 2.63392 43.3696 0 50 0ZM50 68.125C31.4375 68.125 11.875 77.25 11.875 81.25V88.125H88.125V81.25C88.125 77.25 68.5625 68.125 50 68.125ZM50 11.875C46.519 11.875 43.1806 13.2578 40.7192 15.7192C38.2578 18.1806 36.875 21.519 36.875 25C36.875 28.481 38.2578 31.8194 40.7192 34.2808C43.1806 36.7422 46.519 38.125 50 38.125C53.481 38.125 56.8194 36.7422 59.2808 34.2808C61.7422 31.8194 63.125 28.481 63.125 25C63.125 21.519 61.7422 18.1806 59.2808 15.7192C56.8194 13.2578 53.481 11.875 50 11.875Z" fill="#8B5CF6"/>
</svg>
