<svg width="108" height="94" viewBox="0 0 108 94" fill="none" xmlns="http://www.w3.org/2000/svg">
<path d="M29 19.5V9.5C29 6.73857 31.2385 4.5 34 4.5H99C101.761 4.5 104 6.73857 104 9.5V54.5C104 57.2615 101.761 59.5 99 59.5H94" stroke="#7B61FF" stroke-width="8" stroke-linecap="round" stroke-linejoin="round"/>
<path d="M74 34.5H9C6.23858 34.5 4 36.7386 4 39.5V84.5C4 87.2614 6.23858 89.5 9 89.5H74C76.7614 89.5 79 87.2614 79 84.5V39.5C79 36.7386 76.7614 34.5 74 34.5Z" fill="white" stroke="#7B61FF" stroke-width="8" stroke-linecap="round" stroke-linejoin="round"/>
<path d="M4 57H79" stroke="#7B61FF" stroke-width="8" stroke-linecap="round" stroke-linejoin="round"/>
<path d="M79 44.5V74.5" stroke="#7B61FF" stroke-width="8" stroke-linecap="round" stroke-linejoin="round"/>
<path d="M4 44.5V74.5" stroke="#7B61FF" stroke-width="8" stroke-linecap="round" stroke-linejoin="round"/>
<path d="M21.5 72H41.5" stroke="#7B61FF" stroke-width="8" stroke-linecap="round" stroke-linejoin="round"/>
<path d="M56.5 72H61.5" stroke="#7B61FF" stroke-width="8" stroke-linecap="round" stroke-linejoin="round"/>
</svg>
